<?xml version="1.0" encoding="UTF-8"?>
<svg xmlns="http://www.w3.org/2000/svg" width="193" height="32" viewBox="0 0 193 32" fill="none">
  <path d="M192.393 19.7142C192.351 20.0097 192.141 19.9886 191.91 19.9886C186.108 19.9886 180.286 19.9886 174.485 19.9886C174.316 19.9886 174.127 19.9886 173.959 19.9886C173.581 21.9518 175.662 24.7172 178.1 25.4771C180.727 26.3004 184.574 25.7727 186.003 21.7196C187.937 22.3318 189.871 22.9229 191.847 23.535C191.616 24.6116 191.279 25.6249 190.691 26.5326C189.093 29.0235 186.865 30.6912 184.006 31.4089C180.664 32.2533 177.343 32.0422 174.169 30.5857C170.176 28.7702 167.884 25.5616 167.002 21.3397C166.287 17.8566 166.602 14.4579 168.284 11.3126C170.407 7.32288 173.791 5.08525 178.226 4.45197C180.58 4.11421 182.871 4.28309 185.078 5.25414C188.189 6.62626 190.165 9.05386 191.342 12.1992C191.868 13.5924 192.162 15.0279 192.267 16.5056C192.288 16.6322 192.309 16.78 192.33 16.9066C192.393 17.8355 192.393 18.7854 192.393 19.7142ZM174.211 15.0701C174.422 15.0912 174.506 15.0912 174.59 15.0912C178.016 15.0912 181.442 15.0912 184.868 15.0912C185.205 15.0912 185.247 14.9646 185.247 14.6901C185.184 13.4024 184.595 12.3892 183.628 11.587C181.526 9.87714 178.184 9.83491 176.019 11.4604C175.262 12.0303 174.674 12.748 174.422 13.6769C174.316 14.1413 174.295 14.6057 174.211 15.0701Z" fill="#002CB7"></path>
  <path d="M131.458 32C130.806 31.8944 130.133 31.81 129.482 31.6411C123.932 30.3112 119.897 25.836 119.056 20.052C118.131 13.7613 121.683 7.55507 127.548 5.2119C135.178 2.15101 143.817 6.68957 145.73 14.7746C147.433 21.9307 143.502 29.1291 136.649 31.3456C135.746 31.6411 134.779 31.7467 133.833 31.9367C133.749 31.9578 133.665 31.9789 133.581 32C132.866 32 132.172 32 131.458 32ZM138.92 18.4054C138.92 16.5055 138.457 14.9434 137.49 13.5502C135.115 10.1727 130.722 9.87712 127.968 12.8747C125.257 15.8511 125.362 20.8752 128.2 23.725C130.743 26.2793 134.589 26.1737 136.986 23.4717C138.289 21.994 138.899 20.1997 138.92 18.4054Z" fill="#002CB7"></path>
  <path d="M0.021021 5.14859C2.35421 5.14859 4.6874 5.14859 7.04161 5.14859C7.04161 6.11963 7.04161 7.09067 7.04161 8.14615C7.16773 8.01949 7.23078 7.95616 7.27282 7.89283C9.18562 5.31746 11.7921 4.28309 14.924 4.49419C17.089 4.62084 19.0439 5.31746 20.6624 6.77402C22.4491 8.39946 23.3319 10.4682 23.6262 12.8325C23.7103 13.5713 23.7313 14.3313 23.7523 15.0701C23.7523 20.2631 23.7523 25.456 23.7523 30.6279C23.7523 30.7968 23.7523 30.9445 23.7523 31.1556C21.335 31.1556 18.9388 31.1556 16.5005 31.1556C16.5005 31.0079 16.5005 30.8812 16.5005 30.7334C16.5005 25.6249 16.5005 20.5164 16.5005 15.4078C16.5005 12.8536 14.7769 11.0804 12.2335 10.9326C9.7952 10.7848 7.52506 12.3892 7.31486 15.5134C7.23078 16.6533 7.25181 17.7932 7.25181 18.9543C7.25181 22.8595 7.25181 26.7648 7.25181 30.6701C7.25181 30.839 7.25181 30.9867 7.25181 31.1767C7.12569 31.1978 7.0416 31.1978 6.95752 31.1978C4.70841 31.1978 2.48033 31.1978 0.231218 31.1978C0.147139 31.1978 0.0840789 31.1767 0 31.1767C0.0210197 22.4796 0.021021 13.8246 0.021021 5.14859Z" fill="#002CB7"></path>
  <path d="M66.0447 0.799988C66.0447 2.25655 66.0447 3.692 66.0447 5.19078C67.7683 5.19078 69.4709 5.19078 71.1945 5.19078C71.1945 7.30174 71.1945 9.39159 71.1945 11.5026C69.4919 11.5026 67.7893 11.5026 66.0447 11.5026C66.0447 11.6714 66.0236 11.777 66.0236 11.9036C66.0236 15.3445 66.0236 18.7854 66.0236 22.2473C66.0236 22.9862 66.1708 23.6828 66.6332 24.2739C67.0536 24.8016 67.6001 25.1816 68.2938 25.1605C69.1766 25.1394 70.0594 25.0338 70.9423 24.9705C71.0053 24.9705 71.0684 24.9494 71.1314 24.9494C71.1525 25.0338 71.1525 25.0971 71.1525 25.1394C71.1525 26.9548 71.1525 28.7702 71.1525 30.5856C71.1525 30.6912 71.0474 30.8812 70.9423 30.9023C68.483 31.7044 66.0026 31.8522 63.5433 30.9023C60.8738 29.8679 59.5075 27.8414 59.1502 25.0549C59.0451 24.1472 59.0031 23.1973 59.0031 22.2896C58.982 18.8487 59.0031 15.4289 59.0031 11.9881C59.0031 11.8403 59.0031 11.6925 59.0031 11.5026C57.5107 11.5026 56.0393 11.5026 54.5469 11.5026C54.5469 9.37048 54.5469 7.28064 54.5469 5.14857C55.1564 5.14857 55.787 5.14857 56.4176 5.14857C57.868 5.14857 58.961 4.43084 59.5075 3.05871C59.6336 2.74207 59.6547 2.3621 59.6757 2.02434C59.6967 1.62326 59.6757 1.20107 59.6757 0.799988C61.7987 0.799988 63.9217 0.799988 66.0447 0.799988Z" fill="#002CB7"></path>
  <path d="M76.6172 5.233C78.8453 5.233 81.0734 5.233 83.3015 5.233C83.3015 6.1196 83.3015 7.00621 83.3015 7.99836C85.4034 5.57075 87.9048 4.24085 91.0577 4.3675C94.1897 4.51527 96.712 5.76074 98.3936 8.5472C99.0242 7.6606 99.802 6.87955 100.664 6.20404C104.489 3.22759 109.954 4.05086 112.771 6.58401C114.39 8.04057 115.293 9.8771 115.651 11.9881C115.819 12.9169 115.882 13.8457 115.882 14.7957C115.903 20.0942 115.903 25.3927 115.882 30.7123C115.882 30.8389 115.882 30.9656 115.861 31.1134C113.486 31.1134 111.132 31.1134 108.735 31.1134C108.735 30.9656 108.735 30.8178 108.735 30.6701C108.735 25.6882 108.735 20.7063 108.735 15.7245C108.735 15.1334 108.693 14.5212 108.567 13.9513C108.189 12.3469 107.18 11.397 105.54 11.0804C103.144 10.6371 101.21 11.6925 100.327 13.9724C100.033 14.7534 99.907 15.5556 99.907 16.4C99.907 21.1285 99.907 25.8571 99.907 30.5856C99.907 30.7545 99.907 30.9023 99.907 31.0923C97.5108 31.0923 95.1566 31.0923 92.7393 31.0923C92.7393 30.9234 92.7393 30.7545 92.7393 30.5856C92.7393 25.5193 92.7393 20.4319 92.7183 15.3656C92.7183 14.7956 92.6342 14.2257 92.445 13.6768C91.8775 12.0092 90.6163 11.1648 88.9137 11.0381C88.3252 10.9959 87.6946 11.017 87.106 11.1437C85.1932 11.5659 84.2894 12.9591 83.911 14.7534C83.7849 15.3023 83.7639 15.8722 83.7429 16.4211C83.7219 21.1496 83.7429 25.8782 83.7429 30.6067C83.7429 30.7545 83.7429 30.9023 83.7429 31.0712C81.3466 31.0712 78.9924 31.0712 76.6172 31.0712C76.6172 22.4584 76.6172 13.8668 76.6172 5.233Z" fill="#002CB7"></path>
  <path d="M52.3601 19.9886C46.2013 19.9886 40.1056 19.9886 34.0099 19.9886C33.9048 21.6985 35.187 24.5272 38.1718 25.4771C39.7693 25.9837 41.3668 25.9415 42.9222 25.266C44.4987 24.5905 45.4866 23.345 46.0542 21.6985C48.009 22.3107 49.9428 22.9017 51.9187 23.5139C51.6875 24.5905 51.3511 25.6038 50.7836 26.5115C49.1861 29.0024 46.958 30.6912 44.1204 31.4089C40.7362 32.2533 37.394 32.0211 34.2201 30.5856C31.004 29.1291 28.797 26.6592 27.6619 23.3028C26.2115 18.9965 26.4007 14.7745 28.6919 10.8059C30.8149 7.09064 34.136 5.06411 38.3189 4.45193C40.2107 4.17751 42.0814 4.24084 43.9312 4.78969C46.5166 5.54963 48.5345 7.06953 50.0269 9.32825C52.1289 12.558 52.6964 16.1467 52.3601 19.9886ZM45.2975 15.0912C45.2975 14.9223 45.3185 14.7956 45.3185 14.669C45.2554 13.3391 44.6248 12.3258 43.5949 11.5448C42.0184 10.3415 40.2107 10.046 38.2979 10.4893C36.7214 10.8481 35.4602 11.6714 34.7035 13.1702C34.4092 13.7613 34.2621 14.4157 34.3672 15.1123C38.0246 15.0912 41.64 15.0912 45.2975 15.0912Z" fill="#002CB7"></path>
  <path d="M156.072 31.1767C153.781 31.1767 151.532 31.1767 149.262 31.1767C149.262 22.5218 149.262 13.9091 149.262 5.25412C151.532 5.25412 153.781 5.25412 156.072 5.25412C156.072 13.8668 156.072 22.5007 156.072 31.1767Z" fill="#002CB7"></path>
  <path d="M165.951 9.70823C165.951 12.2203 163.975 14.2257 161.473 14.2257C158.993 14.2257 156.975 12.1992 156.996 9.70823C156.996 7.2384 158.993 5.21188 161.452 5.21188C163.954 5.21188 165.951 7.19618 165.951 9.70823Z" fill="#002CB7"></path>
</svg>
